<?xml version="1.0"?>
<svg version="1.1" id="topsvg"
xmlns="http://www.w3.org/2000/svg" xmlns:xlink="http://www.w3.org/1999/xlink"
xmlns:cml="http://www.xml-cml.org/schema" x="0" y="0" width="200px" height="200px" viewBox="0 0 100 100">
<title> - Open Babel Depiction</title>
<rect x="0" y="0" width="100" height="100" fill="white"/>
<g transform="translate(0,0)">
<svg width="100" height="100" x="0" y="0" viewBox="0 0 419.202 254.639"
font-family="sans-serif" stroke="rgb(0,0,0)" stroke-width="2"  stroke-linecap="round">
<line x1="86.2" y1="83.9" x2="109.9" y2="97.6" opacity="1.0" stroke="rgb(0,0,0)"  stroke-width="2.0"/>
<line x1="109.9" y1="97.6" x2="109.9" y2="124.9" opacity="1.0" stroke="rgb(0,0,0)"  stroke-width="2.0"/>
<line x1="98.7" y1="144.4" x2="75.0" y2="158.1" opacity="1.0" stroke="rgb(0,0,0)"  stroke-width="2.0"/>
<line x1="75.0" y1="158.1" x2="51.3" y2="144.5" opacity="1.0" stroke="rgb(0,0,0)"  stroke-width="2.0"/>
<line x1="121.2" y1="144.4" x2="144.9" y2="158.1" opacity="1.0" stroke="rgb(0,0,0)"  stroke-width="2.0"/>
<line x1="147.9" y1="158.1" x2="147.9" y2="185.5" opacity="1.0" stroke="rgb(0,0,0)"  stroke-width="2.0"/>
<line x1="141.9" y1="158.1" x2="141.9" y2="185.5" opacity="1.0" stroke="rgb(0,0,0)"  stroke-width="2.0"/>
<polygon points="179.849092 137.930131 146.892150 161.587140 142.890589 154.659839 " stroke-width="2.000000" fill="rgb(0,0,0)"  stroke="rgb(0,0,0)" />
<line x1="213.1" y1="67.4" x2="213.1" y2="53.0" opacity="1.0" stroke="rgb(0,0,0)"  stroke-width="2.0"/>
<line x1="252.5" y1="95.0" x2="253.3" y2="96.4" opacity="1.0" stroke="rgb(0,0,0)"  stroke-width="1.0"/>
<line x1="257.5" y1="91.4" x2="259.0" y2="93.9" opacity="1.0" stroke="rgb(0,0,0)"  stroke-width="1.0"/>
<line x1="262.5" y1="87.8" x2="264.6" y2="91.4" opacity="1.0" stroke="rgb(0,0,0)"  stroke-width="1.0"/>
<line x1="267.5" y1="84.1" x2="270.2" y2="88.9" opacity="1.0" stroke="rgb(0,0,0)"  stroke-width="1.0"/>
<line x1="272.5" y1="80.5" x2="275.9" y2="86.3" opacity="1.0" stroke="rgb(0,0,0)"  stroke-width="1.0"/>
<line x1="277.5" y1="76.9" x2="281.5" y2="83.8" opacity="1.0" stroke="rgb(0,0,0)"  stroke-width="1.0"/>
<line x1="367.9" y1="144.4" x2="346.0" y2="157.1" opacity="1.0" stroke="rgb(0,0,0)"  stroke-width="2.0"/>
<line x1="346.0" y1="157.1" x2="312.8" y2="137.9" opacity="1.0" stroke="rgb(0,0,0)"  stroke-width="2.0"/>
<line x1="344.4" y1="147.8" x2="321.5" y2="134.7" opacity="1.0" stroke="rgb(0,0,0)"  stroke-width="2.0"/>
<line x1="312.8" y1="137.9" x2="312.8" y2="99.5" opacity="1.0" stroke="rgb(0,0,0)"  stroke-width="2.0"/>
<line x1="312.8" y1="99.5" x2="346.0" y2="80.4" opacity="1.0" stroke="rgb(0,0,0)"  stroke-width="2.0"/>
<line x1="321.5" y1="102.8" x2="344.4" y2="89.6" opacity="1.0" stroke="rgb(0,0,0)"  stroke-width="2.0"/>
<line x1="346.0" y1="80.4" x2="372.7" y2="126.6" opacity="1.0" stroke="rgb(0,0,0)"  stroke-width="2.0"/>
<line x1="279.5" y1="195.5" x2="279.5" y2="157.1" opacity="1.0" stroke="rgb(0,0,0)"  stroke-width="2.0"/>
<line x1="286.7" y1="189.5" x2="286.7" y2="163.1" opacity="1.0" stroke="rgb(0,0,0)"  stroke-width="2.0"/>
<line x1="279.5" y1="157.1" x2="312.8" y2="137.9" opacity="1.0" stroke="rgb(0,0,0)"  stroke-width="2.0"/>
<line x1="346.0" y1="157.1" x2="346.0" y2="195.5" opacity="1.0" stroke="rgb(0,0,0)"  stroke-width="2.0"/>
<line x1="346.0" y1="195.5" x2="312.8" y2="214.6" opacity="1.0" stroke="rgb(0,0,0)"  stroke-width="2.0"/>
<line x1="337.2" y1="192.2" x2="314.4" y2="205.4" opacity="1.0" stroke="rgb(0,0,0)"  stroke-width="2.0"/>
<line x1="312.8" y1="214.6" x2="279.5" y2="195.5" opacity="1.0" stroke="rgb(0,0,0)"  stroke-width="2.0"/>
<line x1="179.8" y1="137.9" x2="179.8" y2="99.6" opacity="1.0" stroke="rgb(0,0,0)"  stroke-width="2.0"/>
<line x1="179.8" y1="99.6" x2="201.8" y2="86.9" opacity="1.0" stroke="rgb(0,0,0)"  stroke-width="2.0"/>
<line x1="224.3" y1="86.9" x2="246.3" y2="99.5" opacity="1.0" stroke="rgb(0,0,0)"  stroke-width="2.0"/>
<line x1="246.3" y1="99.5" x2="246.3" y2="137.9" opacity="1.0" stroke="rgb(0,0,0)"  stroke-width="2.0"/>
<line x1="246.3" y1="137.9" x2="213.1" y2="157.1" opacity="1.0" stroke="rgb(0,0,0)"  stroke-width="2.0"/>
<line x1="237.5" y1="134.7" x2="214.7" y2="147.9" opacity="1.0" stroke="rgb(0,0,0)"  stroke-width="2.0"/>
<line x1="213.1" y1="157.1" x2="179.8" y2="137.9" opacity="1.0" stroke="rgb(0,0,0)"  stroke-width="2.0"/>
<line x1="246.3" y1="99.5" x2="279.5" y2="80.4" opacity="1.0" stroke="rgb(0,0,0)"  stroke-width="2.0"/>
<line x1="279.5" y1="80.4" x2="312.8" y2="99.5" opacity="1.0" stroke="rgb(0,0,0)"  stroke-width="2.0"/>
<line x1="279.5" y1="157.1" x2="246.3" y2="137.9" opacity="1.0" stroke="rgb(0,0,0)"  stroke-width="2.0"/>
<text x="373.201546" y="145.896995" fill="rgb(12,12,255)" stroke-width="0" font-weight="bold" font-size="16" >NH</text>
<text x="48.948623" y="85.397341" fill="rgb(102,102,102)" stroke-width="0" font-weight="bold" font-size="16" >H</text>
<text x="60.948623" y="89.077341" fill="rgb(102,102,102)" stroke-width="0" font-weight="bold" font-size="13" >3</text>
<text x="67.448623" y="85.397341" fill="rgb(102,102,102)" stroke-width="0" font-weight="bold" font-size="16" >C</text>
<text x="209.054500" y="48.000000" fill="rgb(102,102,102)" stroke-width="0" font-weight="bold" font-size="16" >CH</text>
<text x="233.054500" y="51.680000" fill="rgb(102,102,102)" stroke-width="0" font-weight="bold" font-size="13" >3</text>
<text x="207.063600" y="88.370956" fill="rgb(12,12,255)" stroke-width="0" font-weight="bold" font-size="16" >N</text>
<text x="138.900470" y="206.494445" fill="rgb(255,12,12)" stroke-width="0" font-weight="bold" font-size="16" >O</text>
<text x="14.000000" y="145.961655" fill="rgb(102,102,102)" stroke-width="0" font-weight="bold" font-size="16" >H</text>
<text x="26.000000" y="149.641655" fill="rgb(102,102,102)" stroke-width="0" font-weight="bold" font-size="13" >3</text>
<text x="32.500000" y="145.961655" fill="rgb(102,102,102)" stroke-width="0" font-weight="bold" font-size="16" >C</text>
<text x="103.924546" y="145.945893" fill="rgb(12,12,255)" stroke-width="0" font-weight="bold" font-size="16" >N</text>
</svg>
</g>
<text font-size="18.000000" fill ="black" font-family="sans-serif"
x="10.000000" y="20.000000" ></text>
</svg>
